<svg id="visual" viewBox="0 0 1920 1080" width="1920" height="1080" xmlns="http://www.w3.org/2000/svg" xmlns:xlink="http://www.w3.org/1999/xlink" version="1.1"><rect x="0" y="0" width="1920" height="1080" fill="#002233"></rect><path d="M0 1061L64 1019.8C128 978.7 256 896.3 384 889.5C512 882.7 640 951.3 768 950C896 948.7 1024 877.3 1152 859.2C1280 841 1408 876 1536 916.8C1664 957.7 1792 1004.3 1856 1027.7L1920 1051L1920 1081L1856 1081C1792 1081 1664 1081 1536 1081C1408 1081 1280 1081 1152 1081C1024 1081 896 1081 768 1081C640 1081 512 1081 384 1081C256 1081 128 1081 64 1081L0 1081Z" fill="#FFFFFF" stroke-linecap="round" stroke-linejoin="miter"></path></svg>